<svg width="20" height="21" viewBox="0 0 20 21" fill="none" xmlns="http://www.w3.org/2000/svg"> <g clip-path="url(#clip0_8965_18388)"> <path d="M7.5013 19.0417C7.96154 19.0417 8.33464 18.6686 8.33464 18.2083C8.33464 17.7481 7.96154 17.375 7.5013 17.375C7.04106 17.375 6.66797 17.7481 6.66797 18.2083C6.66797 18.6686 7.04106 19.0417 7.5013 19.0417Z" stroke="#292929" stroke-width="1.5" stroke-linecap="round" stroke-linejoin="round"></path> <path d="M16.6654 19.0417C17.1256 19.0417 17.4987 18.6686 17.4987 18.2083C17.4987 17.7481 17.1256 17.375 16.6654 17.375C16.2051 17.375 15.832 17.7481 15.832 18.2083C15.832 18.6686 16.2051 19.0417 16.6654 19.0417Z" stroke="#292929" stroke-width="1.5" stroke-linecap="round" stroke-linejoin="round"></path> <path d="M0.832031 1.54297H4.16536L6.3987 12.7013C6.4749 13.085 6.68362 13.4296 6.98832 13.6749C7.29302 13.9202 7.67428 14.0505 8.06536 14.043H16.1654C16.5564 14.0505 16.9377 13.9202 17.2424 13.6749C17.5471 13.4296 17.7558 13.085 17.832 12.7013L19.1654 5.70964H4.9987" stroke="#292929" stroke-width="1.5" stroke-linecap="round" stroke-linejoin="round"></path> </g> <defs> <clipPath id="clip0_8965_18388"> <rect width="20" height="20" fill="white" transform="translate(0 0.708984)"></rect> </clipPath> </defs> </svg>