<svg xmlns="http://www.w3.org/2000/svg" fill="none" viewBox="0 0 45 32" height="32" width="45">
<path fill="black" d="M1.72044 27.7693H5.57981C5.9398 29.9218 7.81099 31.5695 10.0639 31.5695C12.3168 31.5695 14.188 29.9218 14.548 27.7693H31.412C31.7719 29.9218 33.6431 31.5695 35.8961 31.5695C38.149 31.5695 40.0202 29.9218 40.3802 27.7693H42.1928C43.7408 27.7693 45 26.5101 45 24.9622V17.5277C45 17.0409 44.8568 16.5407 44.5785 16.0682L39.2207 7.33401C38.7115 6.50228 37.798 5.98555 36.8343 5.98555H29.6068V1.71969C29.6068 0.770975 28.835 0 27.8863 0H1.72044C0.771724 0 0 0.771724 0 1.71969V26.0496C0 26.9984 0.771724 27.7693 1.72044 27.7693ZM10.0632 30.0695C8.38172 30.0695 7.01452 28.7023 7.01227 27.0216C7.01227 27.0216 7.01227 27.0201 7.01227 27.0194C7.01227 27.0186 7.01227 27.0171 7.01227 27.0163C7.01227 25.3349 8.38172 23.967 10.0632 23.967C11.7446 23.967 13.1141 25.3357 13.1141 27.0179C13.1141 28.7 11.7454 30.0695 10.0632 30.0695ZM35.8946 30.0695C34.2169 30.0695 32.8519 28.7075 32.8444 27.0313C32.8444 27.0276 32.8467 27.0238 32.8467 27.0194C32.8467 27.0149 32.8444 27.0111 32.8444 27.0066C32.8504 25.3297 34.2161 23.9662 35.8946 23.9662C37.573 23.9662 38.9275 25.3199 38.9432 26.9894C38.9432 26.9999 38.9372 27.0081 38.9372 27.0186C38.9372 27.0284 38.9425 27.0373 38.9432 27.0471C38.9267 28.7158 37.567 30.0687 35.8953 30.0687L35.8946 30.0695ZM42.8581 16.1342H34.0219C33.9266 16.1342 33.8464 16.054 33.8464 15.9587V10.5019H39.4037L42.8581 16.1342ZM36.8335 7.4855C37.2783 7.4855 37.702 7.72774 37.9412 8.11773L38.4842 9.0027H33.5186C32.8729 9.0027 32.3472 9.52843 32.3472 10.1742V15.9587C32.3472 16.8827 33.0986 17.6342 34.0226 17.6342H43.4993V24.9622C43.4993 25.6829 42.9128 26.2694 42.1921 26.2694H40.3794C40.0209 24.1154 38.149 22.467 35.8953 22.467C33.6416 22.467 31.7697 24.1154 31.4112 26.2694H29.6068V7.48625H36.8343L36.8335 7.4855ZM1.49995 1.71969C1.49995 1.5982 1.59895 1.49995 1.72044 1.49995H27.8863C28.0078 1.49995 28.1068 1.59895 28.1068 1.71969V26.2694H14.5473C14.1888 24.1154 12.3168 22.467 10.0632 22.467C7.80949 22.467 5.93755 24.1154 5.57906 26.2694H1.72044C1.59895 26.2694 1.49995 26.1704 1.49995 26.0496V1.71969Z"></path>
</svg>
