<svg width="21" height="21" viewBox="0 0 21 21" fill="none" xmlns="http://www.w3.org/2000/svg"> <g clip-path="url(#clip0_5864_9177)"> <path d="M17.6171 3.98748C17.1915 3.56165 16.6861 3.22385 16.1299 2.99338C15.5737 2.76291 14.9775 2.64429 14.3754 2.64429C13.7734 2.64429 13.1772 2.76291 12.621 2.99338C12.0647 3.22385 11.5594 3.56165 11.1338 3.98748L10.2504 4.87081L9.36709 3.98748C8.50735 3.12773 7.34129 2.64473 6.12542 2.64473C4.90956 2.64473 3.7435 3.12773 2.88376 3.98748C2.02401 4.84722 1.54102 6.01328 1.54102 7.22914C1.54102 8.445 2.02401 9.61107 2.88376 10.4708L3.76709 11.3541L10.2504 17.8375L16.7338 11.3541L17.6171 10.4708C18.0429 10.0452 18.3807 9.53982 18.6112 8.9836C18.8417 8.42739 18.9603 7.83121 18.9603 7.22914C18.9603 6.62707 18.8417 6.03089 18.6112 5.47468C18.3807 4.91846 18.0429 4.41311 17.6171 3.98748Z" fill="white" fill-opacity="0.2" stroke="#292929" stroke-width="1.5" stroke-linecap="round" stroke-linejoin="round"></path> </g> <defs> <clipPath id="clip0_5864_9177"> <rect width="20" height="20" fill="white" transform="translate(0.25 0.145752)"></rect> </clipPath> </defs> </svg>