<svg xmlns="http://www.w3.org/2000/svg" fill="none" viewBox="0 0 44 41" height="41" width="44">
<path fill="black" d="M36.0472 30.7192C35.889 30.9591 35.7262 31.1956 35.5586 31.4289C35.4748 31.5454 35.3893 31.6605 35.303 31.7752C35.2867 31.7967 35.1404 31.9867 35.2629 31.8288C35.2043 31.9043 35.1448 31.9791 35.0852 32.0537C34.7126 32.5199 34.3164 32.967 33.9031 33.3974C33.4899 33.8277 33.0548 34.2368 32.6043 34.6278C32.3879 34.8156 32.1664 34.9975 31.942 35.1757C31.9208 35.1925 31.7315 35.3394 31.8898 35.2175C31.8329 35.2613 31.7757 35.3045 31.7184 35.3476C31.5847 35.4483 31.4491 35.5465 31.3129 35.6438C30.3351 36.3417 29.29 36.9438 28.2012 37.4507C28.0697 37.5119 27.9371 37.5709 27.8043 37.6292C27.7792 37.6402 27.5557 37.7354 27.7424 37.6568C27.6754 37.685 27.6081 37.7125 27.5408 37.7399C27.2481 37.8592 26.952 37.9698 26.6539 38.0746C26.0762 38.278 25.488 38.4506 24.8937 38.5984C24.2917 38.7482 23.682 38.8655 23.0686 38.9573C23.0404 38.9614 22.7918 38.9959 22.9995 38.9681C22.9249 38.9781 22.8502 38.9872 22.7755 38.9963C22.6255 39.0146 22.4753 39.0303 22.325 39.0451C21.9971 39.0775 21.6682 39.0997 21.339 39.1156C20.1657 39.1722 18.9875 39.1187 17.8231 38.9665C18.0514 38.9963 17.8232 38.9655 17.784 38.9599C17.7174 38.9502 17.6508 38.9399 17.5842 38.9295C17.4514 38.9089 17.3189 38.8862 17.1865 38.8629C16.9011 38.8125 16.6172 38.7543 16.3344 38.6912C15.7954 38.571 15.2622 38.4251 14.7354 38.2593C14.2136 38.0952 13.6996 37.9064 13.1936 37.6989C13.1582 37.6844 12.953 37.597 13.1579 37.6843C13.0978 37.6587 13.038 37.6325 12.9782 37.6063C12.8587 37.554 12.7401 37.4999 12.6217 37.4452C12.3659 37.327 12.1132 37.2019 11.8626 37.0727C10.9044 36.5785 9.9903 36.0002 9.12666 35.3552C9.075 35.3166 9.02374 35.2776 8.97242 35.2385C9.14699 35.3715 8.97227 35.2381 8.94262 35.2149C8.84117 35.1355 8.7409 35.0545 8.64107 34.9731C8.42481 34.7968 8.21318 34.6148 8.00463 34.4295C7.6037 34.0732 7.21926 33.6986 6.84882 33.3108C6.47818 32.9229 6.12547 32.518 5.78778 32.1011C5.70671 32.001 5.62706 31.8996 5.54796 31.7979C5.68275 31.9712 5.5484 31.797 5.52566 31.767C5.48677 31.7156 5.44832 31.6638 5.40993 31.612C5.24332 31.3874 5.0827 31.1585 4.92586 30.927C4.31967 30.0321 3.79244 29.0845 3.34245 28.102C3.28814 27.9834 3.2356 27.864 3.18365 27.7443C3.09492 27.5398 3.25431 27.9148 3.16828 27.709C3.14304 27.6487 3.11844 27.5881 3.09384 27.5275C2.98694 27.2644 2.88716 26.9983 2.7919 26.7307C2.60741 26.2125 2.44768 25.6857 2.30783 25.1538C2.16646 24.6159 2.05097 24.0713 1.95615 23.5234C1.93321 23.3908 1.9123 23.2579 1.89211 23.1248C1.882 23.0582 1.87257 22.9913 1.86314 22.9246C1.89535 23.1527 1.86334 22.9242 1.85833 22.8849C1.82116 22.5928 1.79214 22.2996 1.76818 22.0061C1.67483 20.8636 1.68661 19.713 1.79179 18.5718C1.80427 18.4365 1.81885 18.3014 1.83412 18.1664C1.84173 18.0991 1.85003 18.0318 1.85838 17.9646C1.86324 17.9254 1.89462 17.6967 1.86319 17.925C1.90297 17.6362 1.9507 17.3486 2.00333 17.0619C2.10361 16.5159 2.23 15.975 2.37662 15.4396C2.52168 14.9099 2.69187 14.3873 2.88127 13.8719C2.97162 13.626 3.06816 13.3825 3.16838 13.1405C3.25367 12.9344 3.0957 13.3099 3.18375 13.1052C3.20953 13.0452 3.23594 12.9855 3.26231 12.9258C3.32374 12.7867 3.38758 12.6487 3.4523 12.5111C3.91186 11.5337 4.4575 10.5974 5.07189 9.70939C5.21871 9.49721 5.37074 9.28866 5.52581 9.08238C5.5484 9.05233 5.6823 8.87776 5.5481 9.05149C5.58749 9.00047 5.62741 8.9499 5.66728 8.89927C5.76033 8.78122 5.85535 8.66475 5.95105 8.54886C6.29277 8.13531 6.65339 7.73752 7.02766 7.35328C7.40193 6.96909 7.79373 6.60213 8.19805 6.24981C8.39231 6.08055 8.59064 5.9161 8.79138 5.75465C8.84156 5.71424 8.89219 5.67436 8.94276 5.63449C8.97232 5.61117 9.14674 5.47726 8.97257 5.61092C9.09194 5.51934 9.21279 5.42973 9.33422 5.34085C10.2049 4.70392 11.1309 4.14355 12.0944 3.65869C12.327 3.54163 12.5625 3.43041 12.7996 3.32277C12.9185 3.26881 13.0381 3.21666 13.158 3.16515C12.9535 3.25305 13.1584 3.16515 13.1937 3.15056C13.2743 3.11717 13.3553 3.08477 13.4363 3.05246C13.9452 2.8497 14.4635 2.67111 14.9877 2.51211C15.5172 2.3515 16.0542 2.21631 16.5953 2.10146C16.8574 2.04582 17.121 1.99696 17.3851 1.95218C17.5179 1.92969 17.651 1.90926 17.7841 1.88952C17.8232 1.88373 18.0514 1.8523 17.8232 1.8829C17.9126 1.87091 18.0022 1.85996 18.0918 1.84921C19.2288 1.7126 20.3778 1.68152 21.521 1.74305C21.7938 1.75773 22.0663 1.77948 22.3382 1.80551C22.4734 1.81842 22.6083 1.83345 22.7432 1.84921C22.8104 1.85707 22.8776 1.86561 22.9447 1.87416C23.0433 1.88707 23.0341 1.88584 22.9172 1.87042C22.9618 1.87661 23.0063 1.88299 23.0508 1.88952C23.6032 1.96947 24.1517 2.07597 24.6951 2.20305C25.2322 2.32866 25.7631 2.4798 26.2876 2.65064C26.5376 2.73205 26.7854 2.8198 27.0318 2.91133C27.1547 2.95695 27.2768 3.00443 27.3987 3.0525C27.4595 3.07652 27.5202 3.10117 27.5808 3.12577C27.6204 3.14187 27.8902 3.25599 27.677 3.16515C28.6728 3.58931 29.6303 4.10141 30.542 4.68448C30.9951 4.97429 31.4347 5.28492 31.8625 5.61092C31.6879 5.4779 31.8626 5.61126 31.8923 5.63449C31.943 5.67422 31.9933 5.71443 32.0437 5.75465C32.1443 5.83508 32.2437 5.91699 32.3428 5.99933C32.5573 6.17773 32.7671 6.36177 32.9738 6.5491C33.7688 7.26975 34.5009 8.059 35.1678 8.89922C35.2079 8.9497 35.2474 9.00052 35.287 9.05144C35.1522 8.87815 35.2866 9.05233 35.3093 9.08233C35.3871 9.18515 35.4634 9.28916 35.5393 9.3935C35.7037 9.61982 35.8621 9.85041 36.0167 10.0836C36.3148 10.5331 36.592 10.9963 36.8519 11.4689C37.1131 11.9438 37.3521 12.4308 37.5728 12.9257C37.5994 12.9854 37.6254 13.0452 37.6514 13.1051C37.7401 13.3095 37.5807 12.9346 37.6667 13.1404C37.7172 13.2611 37.7659 13.3826 37.8139 13.5043C37.9182 13.7688 38.0154 14.0361 38.108 14.3049C38.469 15.3523 38.7344 16.4317 38.9119 17.525C38.9299 17.6358 38.9464 17.7469 38.9625 17.858C38.9955 18.0861 38.9382 17.6686 38.9681 17.8974C38.9769 17.9645 38.985 18.0317 38.993 18.099C39.0228 18.3465 39.0466 18.5948 39.0668 18.8433C39.1098 19.3693 39.1289 19.897 39.1298 20.4247C39.1306 20.8931 39.5201 21.284 39.9891 21.284C40.4569 21.284 40.8493 20.8932 40.8484 20.4247C40.8404 15.8097 39.263 11.3611 36.423 7.73467C33.6901 4.24504 29.7637 1.7209 25.4747 0.624753C20.9473 -0.532334 16.118 -0.0615248 11.8727 1.86571C7.85825 3.68806 4.48932 6.89426 2.40638 10.7726C0.199155 14.8825 -0.495028 19.6655 0.346025 24.2444C1.14932 28.6179 3.48048 32.6845 6.78935 35.6447C10.1966 38.6928 14.5518 40.5037 19.1087 40.8125C24.1701 41.1554 29.1874 39.5193 33.1572 36.3909C34.8661 35.0443 36.3348 33.4015 37.5312 31.5867C37.7894 31.1951 37.6105 30.638 37.223 30.411C36.8023 30.1646 36.3045 30.329 36.0472 30.7192Z"></path>
<path fill="black" d="M20.4173 19.2088C20.2802 19.2079 20.1439 19.2024 20.0072 19.1922C19.9398 19.1872 19.8726 19.1795 19.8055 19.1718C20.034 19.1981 19.8094 19.1698 19.7688 19.1629C19.487 19.115 19.211 19.0372 18.9419 18.9417C18.8805 18.9199 18.82 18.8957 18.7595 18.8715C18.9661 18.9541 18.763 18.8705 18.7271 18.854C18.6098 18.7998 18.4958 18.7388 18.3832 18.6757C18.2709 18.6129 18.1624 18.5435 18.0554 18.4722C18.002 18.4366 17.95 18.3991 17.898 18.3615C17.8223 18.3047 17.8293 18.3106 17.9191 18.3792C17.8856 18.3526 17.8525 18.3257 17.8198 18.2983C17.6223 18.1353 17.4408 17.9537 17.2705 17.7628C17.2278 17.715 17.1871 17.6656 17.1463 17.6163C17.0073 17.4478 17.2543 17.7628 17.1239 17.5874C17.0346 17.4671 16.953 17.3412 16.8748 17.2134C16.8074 17.1033 16.7466 16.9895 16.688 16.8747C16.6586 16.817 16.6314 16.7583 16.6043 16.6995C16.5115 16.4987 16.672 16.8714 16.5897 16.6655C16.4839 16.401 16.4064 16.1259 16.3474 15.8474C16.3336 15.7822 16.3225 15.7165 16.3113 15.6508C16.273 15.4255 16.3321 15.8411 16.3059 15.613C16.2903 15.4778 16.283 15.3418 16.2784 15.2058C16.2737 15.0685 16.2774 14.931 16.2839 14.7939C16.2871 14.726 16.2931 14.6583 16.299 14.5906C16.3033 14.5458 16.3081 14.501 16.3136 14.4564C16.2973 14.5738 16.2965 14.5835 16.3113 14.4856C16.3521 14.2243 16.4189 13.9675 16.5007 13.7163C16.5209 13.6541 16.5436 13.5929 16.5662 13.5316C16.5798 13.495 16.666 13.2911 16.5778 13.4961C16.6375 13.3575 16.7061 13.2229 16.7781 13.0903C16.8396 12.9772 16.9075 12.8678 16.9775 12.7598C17.0124 12.7059 17.0494 12.6534 17.0863 12.601C17.1085 12.5694 17.2419 12.3968 17.1062 12.5701C17.2772 12.3517 17.4703 12.1511 17.6748 11.964C17.7221 11.9208 17.7709 11.8794 17.8198 11.8381C17.8492 11.8131 18.0215 11.6797 17.8465 11.8132C17.9486 11.7354 18.0551 11.6634 18.1628 11.5936C18.2709 11.5236 18.3829 11.4599 18.496 11.3984C18.5528 11.3676 18.6108 11.3389 18.6687 11.3104C18.708 11.291 18.974 11.1758 18.7595 11.2649C19.1043 11.1217 19.467 11.0248 19.8347 10.9623C19.9325 10.9475 19.9228 10.9483 19.8055 10.9646C19.8501 10.9592 19.8949 10.9544 19.9397 10.9501C20.0526 10.9386 20.1661 10.9332 20.2796 10.9294C20.4849 10.9225 20.6904 10.9321 20.8948 10.9501C20.9396 10.9543 20.9843 10.9592 21.029 10.9646C20.9116 10.9483 20.9019 10.9475 20.9998 10.9623C21.1093 10.9795 21.2178 11.0024 21.326 11.0268C21.5183 11.0701 21.7069 11.1288 21.8926 11.1947C21.9338 11.2093 22.2028 11.3208 21.9893 11.2288C22.0884 11.2715 22.1851 11.3193 22.2812 11.3683C22.4533 11.4561 22.6183 11.5571 22.7789 11.6641C22.8501 11.7115 22.9191 11.7621 22.9878 11.8131C22.8042 11.6768 23.0302 11.8512 23.0634 11.8794C23.2099 12.0035 23.3468 12.1386 23.4781 12.2786C23.5365 12.3409 23.5921 12.4056 23.6472 12.4708C23.6746 12.5035 23.7015 12.5366 23.7281 12.5701C23.5904 12.3989 23.725 12.5694 23.7479 12.601C23.861 12.7573 23.9618 12.9222 24.056 13.0903C24.0981 13.1655 24.1368 13.2425 24.1749 13.3196C24.1937 13.3585 24.2121 13.3975 24.2299 13.4369C24.3227 13.6377 24.1622 13.265 24.2445 13.4708C24.3175 13.6534 24.376 13.8413 24.4268 14.0311C24.4497 14.1164 24.4685 14.2026 24.4868 14.289C24.498 14.3418 24.5513 14.6947 24.5206 14.4564C24.5467 14.6592 24.5563 14.8638 24.5576 15.0682C24.5608 15.5366 24.9462 15.9275 25.417 15.9275C25.883 15.9275 26.2794 15.5366 26.2763 15.0682C26.2592 12.55 24.6477 10.3533 22.2878 9.51556C21.1416 9.10864 19.8269 9.11458 18.6705 9.47422C17.4807 9.84431 16.4682 10.5942 15.7169 11.5791C14.3674 13.3481 14.2306 15.7717 15.2038 17.7421C16.1674 19.693 18.2647 20.9129 20.4171 20.9275C20.8855 20.9306 21.2764 20.5342 21.2764 20.0682C21.2766 19.5973 20.8857 19.212 20.4173 19.2088Z"></path>
<path fill="black" d="M20.4173 20.9383C20.5543 20.9393 20.6907 20.9448 20.8273 20.9549C20.8948 20.96 20.9619 20.9677 21.029 20.9754C20.8005 20.9491 21.0251 20.9774 21.0656 20.9843C21.3474 21.0322 21.6235 21.11 21.8926 21.2055C21.954 21.2273 22.0145 21.2515 22.0749 21.2757C21.8683 21.193 22.0714 21.2767 22.1073 21.2933C22.2246 21.3474 22.3386 21.4084 22.4513 21.4715C22.5635 21.5344 22.6719 21.6036 22.779 21.675C22.8324 21.7106 22.8843 21.7482 22.9363 21.7858C23.0121 21.8425 23.005 21.8366 22.9153 21.768C22.9487 21.7946 22.9818 21.8216 23.0145 21.8489C23.212 22.0119 23.3936 22.1935 23.5639 22.3844C23.6065 22.4322 23.6472 22.4816 23.688 22.531C23.827 22.6995 23.58 22.3844 23.7104 22.5598C23.7997 22.6801 23.8813 22.8061 23.9595 22.9338C24.0269 23.0438 24.0877 23.1576 24.1463 23.2724C24.1757 23.3301 24.2028 23.3889 24.23 23.4476C24.3228 23.6484 24.1622 23.2757 24.2446 23.4816C24.3504 23.7462 24.4279 24.0212 24.4869 24.2997C24.5007 24.3649 24.5119 24.4307 24.5229 24.4964C24.5613 24.7216 24.5021 24.306 24.5283 24.5342C24.5439 24.6694 24.5513 24.8054 24.5558 24.9413C24.5605 25.0787 24.5568 25.2161 24.5503 25.3533C24.5472 25.4212 24.5412 25.4889 24.5352 25.5566C24.531 25.6014 24.5261 25.6461 24.5206 25.6907C24.5369 25.5734 24.5377 25.5636 24.5229 25.6615C24.4821 25.9228 24.4154 26.1796 24.3336 26.4309C24.3133 26.493 24.2906 26.5543 24.268 26.6155C24.2544 26.6522 24.1682 26.8561 24.2565 26.651C24.1968 26.7897 24.1282 26.9242 24.0562 27.0568C23.9947 27.1699 23.9267 27.2793 23.8568 27.3873C23.8218 27.4412 23.7849 27.4937 23.7479 27.5462C23.7257 27.5777 23.5924 27.7503 23.7282 27.5771C23.5571 27.7955 23.364 27.996 23.1595 28.1831C23.1123 28.2263 23.0634 28.2677 23.0146 28.309C22.9852 28.334 22.8129 28.4675 22.9878 28.3339C22.8858 28.4118 22.7793 28.4838 22.6716 28.5535C22.5636 28.6236 22.4515 28.6873 22.3384 28.7488C22.2816 28.7796 22.2237 28.8082 22.1657 28.8368C22.1264 28.8563 21.8605 28.9714 22.0749 28.8823C21.7301 29.0255 21.3674 29.1224 20.9998 29.1849C20.9019 29.1996 20.9116 29.1989 21.029 29.1826C20.9843 29.188 20.9396 29.1929 20.8948 29.1971C20.7818 29.2086 20.6683 29.2139 20.5549 29.2178C20.3496 29.2247 20.1441 29.2151 19.9396 29.1971C19.8948 29.1929 19.8501 29.188 19.8054 29.1826C19.9228 29.1989 19.9325 29.1996 19.8346 29.1849C19.725 29.1677 19.6165 29.1448 19.5083 29.1204C19.316 29.077 19.1274 29.0184 18.9417 28.9525C18.9004 28.9378 18.6315 28.8264 18.845 28.9183C18.7459 28.8757 18.6491 28.8278 18.553 28.7788C18.381 28.691 18.2159 28.59 18.0553 28.483C17.9841 28.4356 17.9151 28.385 17.8464 28.334C18.03 28.4704 17.804 28.2959 17.7708 28.2677C17.6242 28.1436 17.4874 28.0085 17.3561 27.8685C17.2977 27.8063 17.2421 27.7415 17.187 27.6764C17.1596 27.6436 17.1326 27.6105 17.1061 27.5771C17.2437 27.7482 17.1091 27.5778 17.0862 27.5462C16.9732 27.3898 16.8723 27.225 16.7781 27.0568C16.736 26.9817 16.6973 26.9047 16.6592 26.8275C16.6404 26.7886 16.622 26.7496 16.6041 26.7103C16.5114 26.5094 16.672 26.8822 16.5896 26.6763C16.5166 26.4938 16.4582 26.3058 16.4073 26.1161C16.3845 26.0308 16.3656 25.9445 16.3474 25.8582C16.3362 25.8053 16.2829 25.4525 16.3135 25.6908C16.2874 25.488 16.2779 25.2834 16.2765 25.079C16.2734 24.6106 15.888 24.2197 15.4172 24.2197C14.9512 24.2197 14.5547 24.6106 14.5579 25.079C14.5749 27.5971 16.1867 29.7939 18.5465 30.6316C19.6927 31.0385 21.0073 31.0326 22.1637 30.673C23.3535 30.3029 24.3659 29.5529 25.1172 28.568C26.4667 26.799 26.6035 24.3755 25.6303 22.4051C24.6668 20.4542 22.5694 19.2343 20.4172 19.2197C19.9487 19.2166 19.5578 19.613 19.5578 20.0791C19.5579 20.5499 19.9489 20.9352 20.4173 20.9383Z"></path>
<path fill="black" d="M19.5452 8.44819V12.837V22.0936V30.3532V32.4097C19.5452 32.8782 19.936 33.269 20.4045 33.269C20.8729 33.269 21.2638 32.8782 21.2638 32.4097C21.2638 30.9468 21.2638 29.4839 21.2638 28.0209C21.2638 24.9353 21.2638 21.8498 21.2638 18.7643C21.2638 16.0111 21.2638 13.2579 21.2638 10.5047C21.2638 9.81922 21.2638 9.13368 21.2638 8.44819C21.2638 7.97974 20.8729 7.58887 20.4045 7.58887C19.936 7.58887 19.5452 7.97978 19.5452 8.44819Z"></path>
<path fill="black" d="M42.5367 16.6736C41.4871 17.7232 40.4375 18.7728 39.3879 19.8225H40.6031C39.5535 18.7729 38.5039 17.7232 37.4542 16.6736C37.1232 16.3425 36.5701 16.3425 36.239 16.6736C35.908 17.0046 35.908 17.5578 36.239 17.8889C37.2886 18.9385 38.3382 19.9881 39.3879 21.0377C39.7189 21.3688 40.272 21.3688 40.6031 21.0377C41.6527 19.9881 42.7023 18.9385 43.7519 17.8889C44.083 17.5578 44.083 17.0046 43.7519 16.6736C43.4209 16.3425 42.8678 16.3425 42.5367 16.6736Z"></path>
</svg>
