<svg xmlns="http://www.w3.org/2000/svg" fill="none" viewBox="0 0 44 37" height="37" width="44">
<path fill="black" d="M6.15808 29.9119C5.92475 29.9119 5.70098 30.0046 5.536 30.1695C5.37101 30.3345 5.27832 30.5583 5.27832 30.7916C5.27832 31.025 5.37101 31.2487 5.536 31.4137C5.70098 31.5787 5.92475 31.6714 6.15808 31.6714H13.1961C13.4295 31.6714 13.6532 31.5787 13.8182 31.4137C13.9832 31.2487 14.0759 31.025 14.0759 30.7916C14.0759 30.5583 13.9832 30.3345 13.8182 30.1695C13.6532 30.0046 13.4295 29.9119 13.1961 29.9119H6.15808Z"></path>
<path fill="black" d="M33.4308 21.1142C35.3668 21.1164 37.2661 20.5862 38.921 19.5817C40.576 18.5771 41.9228 17.1368 42.8142 15.4183C43.7057 13.6997 44.1074 11.7692 43.9755 9.83771C43.8435 7.90624 43.183 6.04824 42.0662 4.46689C40.9494 2.88554 39.4192 1.64174 37.6431 0.871507C35.8669 0.101274 33.9132 -0.165729 31.9955 0.0996964C30.0778 0.365122 28.27 1.15275 26.7699 2.37646C25.2697 3.60017 24.1349 5.21282 23.4896 7.03807H3.20232C2.35316 7.03853 1.5389 7.37607 0.938453 7.97652C0.338003 8.57697 0.00046619 9.39122 0 10.2404V33.7475C0.00046619 34.5967 0.338003 35.411 0.938453 36.0114C1.5389 36.6119 2.35316 36.9494 3.20232 36.9499H37.2666C38.1157 36.9494 38.93 36.6119 39.5305 36.0114C40.1309 35.411 40.4684 34.5967 40.4689 33.7475V22.2896C40.4689 22.0562 40.3762 21.8325 40.2112 21.6675C40.0462 21.5025 39.8225 21.4098 39.5891 21.4098C39.3558 21.4098 39.132 21.5025 38.9671 21.6675C38.8021 21.8325 38.7094 22.0562 38.7094 22.2896V33.7475C38.7089 34.1301 38.5568 34.4968 38.2863 34.7672C38.0158 35.0377 37.6491 35.1899 37.2666 35.1903H3.20232C2.81981 35.1899 2.4531 35.0377 2.18262 34.7672C1.91214 34.4968 1.75998 34.1301 1.75952 33.7475V14.0761H23.4896C24.2166 16.1325 25.5627 17.9132 27.3428 19.1735C29.123 20.4337 31.2497 21.1117 33.4308 21.1142ZM33.4308 1.75952C35.1708 1.75952 36.8718 2.27548 38.3185 3.24218C39.7653 4.20887 40.8929 5.58286 41.5587 7.19041C42.2246 8.79796 42.3988 10.5669 42.0594 12.2734C41.7199 13.98 40.882 15.5476 39.6517 16.7779C38.4213 18.0083 36.8537 18.8462 35.1472 19.1856C33.4406 19.5251 31.6717 19.3509 30.0641 18.685C28.4566 18.0191 27.0826 16.8915 26.1159 15.4448C25.1492 13.998 24.6332 12.2971 24.6332 10.5571C24.636 8.2247 25.5638 5.98862 27.2131 4.33935C28.8623 2.69009 31.0984 1.76231 33.4308 1.75952ZM1.75952 12.3166V10.2404C1.75998 9.85788 1.91214 9.49117 2.18262 9.22069C2.4531 8.95021 2.81981 8.79805 3.20232 8.79759H23.0321C22.8209 9.96109 22.8209 11.1531 23.0321 12.3166H1.75952Z"></path>
<path fill="black" d="M31.6344 13.5254C31.7162 13.6074 31.8132 13.6724 31.9201 13.7167C32.027 13.7611 32.1416 13.7839 32.2573 13.7839C32.373 13.7839 32.4876 13.7611 32.5945 13.7167C32.7014 13.6724 32.7985 13.6074 32.8802 13.5254L37.5728 8.83455C37.738 8.66935 37.8308 8.4453 37.8308 8.21168C37.8308 7.97806 37.738 7.75401 37.5728 7.58881C37.4076 7.42362 37.1836 7.33081 36.9499 7.33081C36.7163 7.33081 36.4923 7.42362 36.3271 7.58881L32.2573 11.6586L30.5347 9.93425C30.3695 9.76905 30.1455 9.67625 29.9119 9.67625C29.6783 9.67625 29.4542 9.76905 29.289 9.93425C29.1238 10.0994 29.031 10.3235 29.031 10.5571C29.031 10.7907 29.1238 11.0148 29.289 11.18L31.6344 13.5254Z"></path>
</svg>
